<svg xmlns="http://www.w3.org/2000/svg" width="75" viewBox="0 0 75 30" height="30" version="1.0"><defs><clipPath id="a"><path d="M 1.210938 2 L 73.789062 2 L 73.789062 26 L 1.210938 26 Z M 1.210938 2"/></clipPath></defs><g clip-path="url(#a)"><path transform="matrix(1.5121 0 0 1.5121 1.21 2.42)" fill="none" d="M 7.138584 5.424082 C 7.322001 5.424082 7.500251 5.411166 7.668168 5.411166 C 8.050501 5.411166 8.399251 5.529999 8.399251 5.963999 C 8.399251 7.547582 7.908418 9.058832 6.324834 9.696916 C 5.782334 9.911332 2.806334 10.236832 2.806334 10.859416 C 2.806334 11.701582 3.217084 12.468832 4.152251 12.468832 C 7.296168 12.468832 11.026501 10.053416 11.026501 6.635666 C 11.026501 6.085416 10.969668 4.654249 10.739751 4.173749 C 10.272168 3.217915 8.040168 3.204999 7.115334 3.204999 C 6.818251 3.204999 6.516001 3.217915 6.216334 3.217915 C 4.991834 3.217915 3.757001 3.204999 2.555751 3.458165 C 2.219918 3.527915 1.884084 3.646749 1.643834 3.899915 C 1.442334 4.127249 1.282168 4.390749 1.189168 4.677499 C 0.985084 5.302666 1.008334 6.010499 1.008334 6.658916 C 1.008334 7.488166 1.070334 7.991916 2.052001 7.991916 C 2.772751 7.991916 3.576168 7.873082 3.576168 6.971499 C 3.576168 6.576249 3.516751 6.155166 3.720834 5.796082 C 3.829334 5.615249 4.079918 5.542916 4.271084 5.496416 C 4.524251 5.434416 4.774834 5.424082 5.038334 5.424082 Z M 19.546335 3.961915 C 19.546335 4.630999 19.608335 5.318166 19.608335 5.987249 C 19.608335 7.333166 19.476585 8.640332 18.407085 9.578082 C 18.073835 9.875166 17.650168 10.081832 17.231668 10.223916 C 16.836418 10.355666 15.012585 10.464166 15.012585 11.014416 C 15.012585 11.771332 15.493085 12.696166 16.345585 12.696166 C 17.050835 12.696166 17.771585 12.468832 18.420001 12.192416 C 20.856085 11.182332 22.367335 9.361082 22.367335 6.648582 C 22.367335 5.963999 22.295002 3.468499 21.646585 3.132665 C 21.264252 2.925999 20.770835 2.941499 20.352335 2.941499 C 19.621251 2.941499 19.546335 3.349665 19.546335 3.961915 Z M 16.392085 4.426915 C 16.392085 4.235749 16.402418 4.054915 16.402418 3.876665 C 16.402418 3.251499 16.115668 2.941499 15.493085 2.941499 C 15.206335 2.941499 14.508835 3.073249 14.255668 3.217915 C 13.751918 3.514999 13.679585 6.000166 13.679585 6.599499 C 13.679585 7.849832 13.741585 8.340666 15.144335 8.340666 C 16.151835 8.340666 16.402418 7.534666 16.402418 6.682166 C 16.402418 6.372166 16.392085 6.072499 16.392085 5.759916 Z M 29.688502 8.317416 C 29.846085 7.787832 29.902918 7.211749 30.166418 6.720916 C 30.429918 6.227499 30.791585 6.204249 31.321169 6.204249 C 31.752585 6.204249 32.158169 6.240416 32.158169 6.767416 C 32.158169 7.007666 32.124585 7.260832 32.124585 7.501082 C 32.124585 7.929916 32.134919 10.213582 31.522669 10.213582 C 31.173919 10.213582 30.830335 10.161916 30.491919 10.161916 C 29.616168 10.161916 29.543835 10.799999 29.543835 11.520749 C 29.543835 12.192416 30.287835 12.337082 30.817419 12.337082 C 31.070585 12.337082 31.305669 12.324166 31.558835 12.324166 C 32.184002 12.324166 32.747169 12.311249 33.310335 12.024499 C 34.775085 11.280499 34.798335 7.679332 34.798335 6.250749 C 34.798335 5.770249 34.798335 5.002999 34.534835 4.597416 C 34.441835 4.465666 34.307502 4.390749 34.152502 4.357165 C 33.178585 4.140165 32.184002 4.116915 31.186835 4.116915 C 30.995669 4.116915 30.683085 4.103999 30.528085 3.995499 C 30.349835 3.863749 30.298168 3.731999 30.298168 3.504665 C 30.298168 3.406499 30.311085 3.313499 30.311085 3.217915 C 30.311085 2.530749 29.652335 2.507499 29.135668 2.507499 C 28.427835 2.507499 28.006752 2.569499 27.949918 3.372915 C 27.934418 3.589915 27.864668 3.791415 27.779418 3.985165 C 27.526252 4.235749 27.216252 4.248665 26.880418 4.248665 C 26.593668 4.248665 26.317252 4.225415 26.038252 4.225415 C 25.214168 4.225415 25.043668 4.871249 25.043668 5.555832 C 25.043668 6.193916 25.488002 6.276582 26.015002 6.276582 C 26.232002 6.276582 26.461918 6.240416 26.673752 6.240416 C 27.131002 6.240416 27.469418 6.359249 27.469418 6.875916 C 27.469418 8.195999 26.580752 8.903832 25.488002 10.161916 C 25.333002 10.345332 25.162502 10.595916 25.162502 10.836166 C 25.162502 11.267582 26.363752 12.251832 26.782252 12.251832 C 27.262752 12.251832 27.973168 11.735166 28.223752 11.376082 C 28.980668 10.378916 29.316502 9.549666 29.688502 8.317416 Z M 37.882835 5.302666 C 38.257419 5.519666 40.404169 6.540082 40.752919 6.540082 C 41.267002 6.540082 42.034252 5.449916 42.034252 4.969416 C 42.034252 4.295165 39.515502 3.217915 38.903252 3.217915 C 38.340085 3.217915 37.536669 4.248665 37.536669 4.785999 C 37.536669 5.002999 37.717502 5.209666 37.882835 5.302666 Z M 45.756836 4.295165 C 45.503669 4.295165 45.361586 4.320999 45.193669 4.522499 C 45.108419 4.620666 45.059336 4.752416 45.012836 4.871249 C 44.844919 5.289749 44.640836 5.700499 44.423836 6.095749 C 43.969169 6.922416 43.511919 7.557916 42.791169 8.183082 C 42.445002 8.485332 42.073002 8.735916 41.662252 8.952916 C 41.243752 9.167332 40.752919 9.252582 40.306002 9.275832 C 39.732502 9.309416 39.288169 9.324916 38.471835 9.417916 C 38.303919 9.446332 37.740752 9.681416 37.632252 10.345332 C 37.487585 11.376082 38.112752 12.132999 39.073752 12.132999 C 39.636919 12.132999 40.380919 12.011582 40.918252 11.866916 C 43.573919 11.135832 45.578586 9.601332 46.787586 7.069666 C 47.038169 6.540082 47.386919 5.987249 47.386919 5.374999 C 47.386919 4.630999 46.369086 4.295165 45.756836 4.295165 Z M 45.756836 4.295165" stroke="#000" stroke-width=".45"/></g></svg>