<svg xmlns="http://www.w3.org/2000/svg" width="75" viewBox="0 0 75 30" height="30" version="1.0"><defs><clipPath id="a"><path d="M 1.210938 0 L 73.789062 0 L 73.789062 29.03125 L 1.210938 29.03125 Z M 1.210938 0"/></clipPath><clipPath id="b"><path d="M 1.210938 5 L 73.789062 5 L 73.789062 24 L 1.210938 24 Z M 1.210938 5"/></clipPath></defs><g clip-path="url(#a)" fill="#FFF"><path d="M 1.210938 0 L 73.789062 0 L 73.789062 36.289062 L 1.210938 36.289062 Z M 1.210938 0"/><path d="M 1.210938 0 L 73.789062 0 L 73.789062 29.03125 L 1.210938 29.03125 Z M 1.210938 0"/><path d="M 1.210938 0 L 73.789062 0 L 73.789062 29.03125 L 1.210938 29.03125 Z M 1.210938 0"/></g><g fill="#FFA7E4"><g><g><path d="M 10.792969 -9.941406 C 11.066406 -9.941406 11.339844 -9.960938 11.59375 -9.960938 C 12.171875 -9.960938 12.699219 -9.777344 12.699219 -9.125 C 12.699219 -6.730469 11.953125 -4.445312 9.558594 -3.484375 C 8.742188 -3.15625 4.246094 -2.667969 4.246094 -1.722656 C 4.246094 -0.453125 4.863281 0.707031 6.277344 0.707031 C 11.03125 0.707031 16.671875 -2.9375 16.671875 -8.109375 C 16.671875 -8.945312 16.582031 -11.101562 16.234375 -11.828125 C 15.527344 -13.28125 12.15625 -13.296875 10.757812 -13.296875 C 10.304688 -13.296875 9.851562 -13.28125 9.398438 -13.28125 C 7.546875 -13.28125 5.679688 -13.296875 3.863281 -12.917969 C 3.355469 -12.808594 2.847656 -12.625 2.484375 -12.246094 C 2.175781 -11.902344 1.941406 -11.5 1.796875 -11.066406 C 1.488281 -10.121094 1.523438 -9.050781 1.523438 -8.074219 C 1.523438 -6.820312 1.613281 -6.058594 3.101562 -6.058594 C 4.191406 -6.058594 5.40625 -6.242188 5.40625 -7.601562 C 5.40625 -8.199219 5.316406 -8.835938 5.625 -9.378906 C 5.785156 -9.652344 6.167969 -9.761719 6.457031 -9.832031 C 6.839844 -9.921875 7.21875 -9.941406 7.621094 -9.941406 Z M 10.792969 -9.941406" transform="translate(.597 21.67)"/></g></g></g><g fill="#FFA7E4"><g><g><path d="M 11.410156 -12.15625 C 11.410156 -11.136719 11.5 -10.105469 11.5 -9.089844 C 11.5 -7.058594 11.300781 -5.078125 9.6875 -3.664062 C 9.179688 -3.210938 8.542969 -2.902344 7.910156 -2.683594 C 7.3125 -2.484375 4.554688 -2.320312 4.554688 -1.488281 C 4.554688 -0.34375 5.277344 1.050781 6.566406 1.050781 C 7.636719 1.050781 8.726562 0.707031 9.707031 0.289062 C 13.386719 -1.234375 15.675781 -3.992188 15.675781 -8.089844 C 15.675781 -9.125 15.566406 -12.898438 14.585938 -13.40625 C 14.003906 -13.714844 13.261719 -13.695312 12.625 -13.695312 C 11.519531 -13.695312 11.410156 -13.078125 11.410156 -12.15625 Z M 6.640625 -11.445312 C 6.640625 -11.738281 6.65625 -12.007812 6.65625 -12.28125 C 6.65625 -13.226562 6.222656 -13.695312 5.277344 -13.695312 C 4.84375 -13.695312 3.792969 -13.496094 3.410156 -13.28125 C 2.648438 -12.824219 2.539062 -9.070312 2.539062 -8.164062 C 2.539062 -6.277344 2.628906 -5.53125 4.753906 -5.53125 C 6.277344 -5.53125 6.65625 -6.75 6.65625 -8.035156 C 6.65625 -8.507812 6.640625 -8.960938 6.640625 -9.433594 Z M 6.640625 -11.445312" transform="translate(18.732 21.67)"/></g></g></g><g fill="#FFA7E4"><g><g><path d="M 8.597656 -5.570312 C 8.835938 -6.367188 8.925781 -7.238281 9.324219 -7.980469 C 9.722656 -8.726562 10.269531 -8.761719 11.066406 -8.761719 C 11.71875 -8.761719 12.335938 -8.707031 12.335938 -7.910156 C 12.335938 -7.546875 12.28125 -7.164062 12.28125 -6.804688 C 12.28125 -6.148438 12.300781 -2.703125 11.375 -2.703125 C 10.847656 -2.703125 10.324219 -2.777344 9.8125 -2.777344 C 8.488281 -2.777344 8.382812 -1.8125 8.382812 -0.726562 C 8.382812 0.289062 9.507812 0.507812 10.304688 0.507812 C 10.683594 0.507812 11.046875 0.488281 11.429688 0.488281 C 12.371094 0.488281 13.226562 0.472656 14.078125 0.0351562 C 16.289062 -1.089844 16.328125 -6.53125 16.328125 -8.691406 C 16.328125 -9.414062 16.328125 -10.578125 15.929688 -11.191406 C 15.78125 -11.394531 15.582031 -11.5 15.347656 -11.554688 C 13.878906 -11.882812 12.371094 -11.917969 10.867188 -11.917969 C 10.578125 -11.917969 10.105469 -11.9375 9.867188 -12.101562 C 9.597656 -12.300781 9.523438 -12.5 9.523438 -12.84375 C 9.523438 -12.988281 9.542969 -13.132812 9.542969 -13.28125 C 9.542969 -14.3125 8.542969 -14.351562 7.765625 -14.351562 C 6.695312 -14.351562 6.058594 -14.257812 5.96875 -13.042969 C 5.949219 -12.71875 5.839844 -12.410156 5.714844 -12.117188 C 5.332031 -11.738281 4.863281 -11.71875 4.355469 -11.71875 C 3.917969 -11.71875 3.5 -11.753906 3.085938 -11.753906 C 1.832031 -11.753906 1.578125 -10.777344 1.578125 -9.742188 C 1.578125 -8.78125 2.25 -8.652344 3.046875 -8.652344 C 3.375 -8.652344 3.71875 -8.707031 4.046875 -8.707031 C 4.734375 -8.707031 5.242188 -8.527344 5.242188 -7.746094 C 5.242188 -5.75 3.898438 -4.679688 2.25 -2.777344 C 2.011719 -2.503906 1.757812 -2.121094 1.757812 -1.757812 C 1.757812 -1.105469 3.574219 0.382812 4.207031 0.382812 C 4.933594 0.382812 6.003906 -0.398438 6.386719 -0.941406 C 7.527344 -2.449219 8.035156 -3.699219 8.597656 -5.570312 Z M 8.597656 -5.570312" transform="translate(36.867 21.67)"/></g></g></g><g fill="#FFA7E4"><g><g><path d="M 2.847656 -10.121094 C 3.410156 -9.796875 6.65625 -8.253906 7.183594 -8.253906 C 7.964844 -8.253906 9.125 -9.90625 9.125 -10.628906 C 9.125 -11.648438 5.316406 -13.28125 4.390625 -13.28125 C 3.539062 -13.28125 2.320312 -11.71875 2.320312 -10.902344 C 2.320312 -10.578125 2.59375 -10.269531 2.847656 -10.121094 Z M 14.75 -11.648438 C 14.367188 -11.648438 14.148438 -11.609375 13.894531 -11.300781 C 13.769531 -11.15625 13.695312 -10.957031 13.625 -10.777344 C 13.371094 -10.140625 13.0625 -9.523438 12.734375 -8.925781 C 12.046875 -7.671875 11.355469 -6.710938 10.269531 -5.769531 C 9.742188 -5.316406 9.179688 -4.933594 8.5625 -4.609375 C 7.925781 -4.28125 7.183594 -4.15625 6.511719 -4.117188 C 5.640625 -4.0625 4.96875 -4.046875 3.738281 -3.898438 C 3.484375 -3.863281 2.628906 -3.5 2.46875 -2.503906 C 2.25 -0.941406 3.191406 0.199219 4.644531 0.199219 C 5.496094 0.199219 6.621094 0.0195312 7.4375 -0.199219 C 11.445312 -1.304688 14.476562 -3.628906 16.308594 -7.457031 C 16.691406 -8.253906 17.214844 -9.089844 17.214844 -10.015625 C 17.214844 -11.136719 15.675781 -11.648438 14.75 -11.648438 Z M 14.75 -11.648438" transform="translate(55.002 21.67)"/></g></g></g><g clip-path="url(#b)"><path transform="matrix(1.03075 0 0 1.03075 -3.208 6.786)" fill="none" d="M 14.769531 4.354033 C 15.034812 4.354033 15.296303 4.335085 15.542636 4.335085 C 16.103516 4.335085 16.61513 4.513202 16.61513 5.149877 C 16.61513 7.469192 15.895081 9.686184 13.571976 10.622248 C 12.779922 10.936795 8.414152 11.414302 8.414152 12.327627 C 8.414152 13.563079 9.01672 14.688629 10.384812 14.688629 C 14.996915 14.688629 20.469286 11.145231 20.469286 6.131417 C 20.469286 5.324204 20.385912 3.228483 20.048626 2.523593 C 19.362685 1.117603 16.088357 1.102444 14.735423 1.102444 C 14.295815 1.102444 13.852416 1.117603 13.416597 1.117603 C 11.620265 1.117603 9.804984 1.102444 8.042759 1.470048 C 7.553884 1.572371 7.061219 1.750488 6.708774 2.118092 C 6.409385 2.455378 6.178211 2.841931 6.041781 3.262591 C 5.742392 4.175916 5.7765 5.218092 5.7765 6.165524 C 5.7765 7.382028 5.863664 8.121026 7.303761 8.121026 C 8.361096 8.121026 9.543492 7.946698 9.543492 6.627872 C 9.543492 6.048043 9.452539 5.426527 9.755717 4.899754 C 9.911096 4.638263 10.28249 4.528361 10.56293 4.460146 C 10.930534 4.369192 11.301927 4.354033 11.68848 4.354033 Z M 32.960239 2.209046 C 32.960239 3.194376 33.051192 4.198654 33.051192 5.183984 C 33.051192 7.154644 32.857916 9.072248 31.288967 10.44792 C 30.796302 10.883739 30.178576 11.186918 29.56464 11.395353 C 28.984811 11.588629 26.309261 11.747798 26.309261 12.555011 C 26.309261 13.665402 27.014151 15.022125 28.264762 15.022125 C 29.299359 15.022125 30.356694 14.688629 31.304126 14.283128 C 34.881632 12.801343 37.098625 10.129583 37.098625 6.150366 C 37.098625 5.149877 36.988722 1.488997 36.04129 0.992542 C 35.47662 0.693153 34.756571 0.715892 34.142635 0.715892 C 33.066351 0.715892 32.960239 1.310879 32.960239 2.209046 Z M 28.332977 2.891197 C 28.332977 2.614547 28.348136 2.345476 28.348136 2.083984 C 28.348136 1.170659 27.927476 0.715892 27.014151 0.715892 C 26.589701 0.715892 25.570264 0.909168 25.19887 1.117603 C 24.459872 1.557212 24.35376 5.199143 24.35376 6.08215 C 24.35376 7.91259 24.444714 8.632639 26.502537 8.632639 C 27.980532 8.632639 28.348136 7.450243 28.348136 6.199632 C 28.348136 5.744864 28.332977 5.309045 28.332977 4.846698 Z M 47.827352 8.598532 C 48.058526 7.821637 48.1419 6.980317 48.528453 6.256478 C 48.915005 5.536429 49.445567 5.502322 50.222462 5.502322 C 50.855347 5.502322 51.450335 5.551588 51.450335 6.324693 C 51.450335 6.677138 51.401068 7.048532 51.401068 7.400977 C 51.401068 8.030072 51.416227 11.380194 50.518061 11.380194 C 50.006448 11.380194 49.502413 11.304399 49.005959 11.304399 C 47.72124 11.304399 47.615127 12.236673 47.615127 13.294008 C 47.615127 14.283128 48.70657 14.495353 49.483465 14.495353 C 49.851069 14.495353 50.199724 14.476404 50.571117 14.476404 C 51.484443 14.476404 52.314394 14.453666 53.140555 14.033006 C 55.289332 12.941563 55.32344 7.662468 55.32344 5.570537 C 55.32344 4.865647 55.32344 3.740097 54.936887 3.141319 C 54.800457 2.948043 54.599601 2.841931 54.372217 2.788874 C 52.947279 2.470537 51.484443 2.436429 50.025396 2.436429 C 49.744956 2.436429 49.286399 2.42127 49.059015 2.262102 C 48.797523 2.068826 48.721729 1.875549 48.721729 1.538263 C 48.721729 1.398043 48.740677 1.261613 48.740677 1.117603 C 48.740677 0.113324 47.774296 0.0792169 47.01635 0.0792169 C 45.977964 0.0792169 45.364027 0.17017 45.276864 1.344987 C 45.254125 1.663324 45.151802 1.958923 45.026741 2.243153 C 44.659137 2.614547 44.20437 2.629706 43.707915 2.629706 C 43.287255 2.629706 42.881754 2.595598 42.476253 2.595598 C 41.263539 2.595598 41.013416 3.546821 41.013416 4.547309 C 41.013416 5.483373 41.66904 5.604644 42.442145 5.604644 C 42.760482 5.604644 43.093979 5.551588 43.408526 5.551588 C 44.079309 5.551588 44.571974 5.729705 44.571974 6.483862 C 44.571974 8.424204 43.268306 9.4588 41.66904 11.304399 C 41.437866 11.57347 41.191534 11.941074 41.191534 12.293519 C 41.191534 12.926404 42.953759 14.370292 43.567695 14.370292 C 44.272585 14.370292 45.310971 13.612345 45.682365 13.085573 C 46.788966 11.622737 47.281631 10.406233 47.827352 8.598532 Z M 59.840799 4.175916 C 60.38652 4.494253 63.535786 5.991197 64.0474 5.991197 C 64.805346 5.991197 65.930896 4.39193 65.930896 3.687041 C 65.930896 2.697921 62.235909 1.117603 61.337743 1.117603 C 60.511581 1.117603 59.329185 2.629706 59.329185 3.421759 C 59.329185 3.740097 59.598256 4.039486 59.840799 4.175916 Z M 71.388109 2.697921 C 71.016715 2.697921 70.80828 2.739608 70.561947 3.035207 C 70.436886 3.175427 70.364881 3.368703 70.296666 3.546821 C 70.050334 4.160757 69.750945 4.763324 69.432607 5.343153 C 68.765615 6.552077 68.094832 7.484351 67.037498 8.401466 C 66.533463 8.844864 65.987742 9.212468 65.385175 9.530805 C 64.771239 9.845353 64.0474 9.970414 63.395566 10.004522 C 62.554246 10.053788 61.898623 10.076527 60.704857 10.212957 C 60.454735 10.254644 59.632364 10.599509 59.473195 11.57347 C 59.26097 13.085573 60.178085 14.192174 61.584075 14.192174 C 62.410236 14.192174 63.501679 14.017847 64.293733 13.805622 C 68.185786 12.733128 71.126617 10.482028 72.900211 6.768092 C 73.267815 5.991197 73.779429 5.183984 73.779429 4.285818 C 73.779429 3.194376 72.286275 2.697921 71.388109 2.697921 Z M 71.388109 2.697921" stroke="#FF66C4" stroke-width=".286"/></g></svg>